<svg xmlns="http://www.w3.org/2000/svg" xmlns:xlink="http://www.w3.org/1999/xlink" width="500" zoomAndPan="magnify" viewBox="0 0 375 374.999991" height="500" preserveAspectRatio="xMidYMid meet" version="1.0"><defs><clipPath id="cff8d04ccf"><path d="M 24 6.09375 L 375 6.09375 L 375 197 L 24 197 Z M 24 6.09375 " clip-rule="nonzero"/></clipPath><clipPath id="bf05b7c154"><path d="M 116 264 L 246 264 L 246 369.09375 L 116 369.09375 Z M 116 264 " clip-rule="nonzero"/></clipPath></defs><g clip-path="url(#cff8d04ccf)"><path fill="#000000" d="M 359.632812 196.820312 L 150.613281 196.820312 C 148.910156 196.820312 147.539062 195.449219 147.539062 193.746094 C 147.539062 192.039062 148.910156 190.667969 150.613281 190.667969 L 359.632812 190.667969 C 364.722656 190.667969 368.851562 186.535156 368.851562 181.441406 L 368.851562 21.523438 C 368.851562 16.429688 364.722656 12.296875 359.632812 12.296875 L 39.960938 12.296875 C 34.867188 12.296875 30.738281 16.429688 30.738281 21.523438 L 30.738281 162.992188 C 30.738281 164.695312 29.367188 166.066406 27.664062 166.066406 C 25.957031 166.066406 24.589844 164.695312 24.589844 162.992188 L 24.589844 21.523438 C 24.589844 13.042969 31.480469 6.148438 39.960938 6.148438 L 359.632812 6.148438 C 368.109375 6.148438 375 13.042969 375 21.523438 L 375 181.441406 C 375 189.925781 368.109375 196.820312 359.632812 196.820312 " fill-opacity="1" fill-rule="nonzero"/></g><path fill="#000000" d="M 316.597656 166.066406 L 82.992188 166.066406 C 81.285156 166.066406 79.917969 164.695312 79.917969 162.992188 C 79.917969 151.121094 70.265625 141.464844 58.402344 141.464844 C 56.695312 141.464844 55.328125 140.09375 55.328125 138.386719 C 55.328125 136.683594 56.695312 135.3125 58.402344 135.3125 C 72.617188 135.3125 84.359375 146.101562 85.898438 159.914062 L 313.691406 159.914062 C 315.109375 147.109375 325.316406 136.898438 338.113281 135.480469 L 338.113281 67.488281 C 325.316406 66.070312 315.109375 55.859375 313.691406 43.050781 L 85.898438 43.050781 C 84.359375 56.867188 72.617188 67.65625 58.402344 67.65625 C 56.695312 67.65625 55.328125 66.285156 55.328125 64.578125 C 55.328125 62.875 56.695312 61.503906 58.402344 61.503906 C 70.265625 61.503906 79.917969 51.84375 79.917969 39.976562 C 79.917969 38.269531 81.285156 36.902344 82.992188 36.902344 L 316.597656 36.902344 C 318.304688 36.902344 319.671875 38.269531 319.671875 39.976562 C 319.671875 51.84375 329.324219 61.503906 341.1875 61.503906 C 342.894531 61.503906 344.261719 62.875 344.261719 64.578125 L 344.261719 138.386719 C 344.261719 140.09375 342.894531 141.464844 341.1875 141.464844 C 329.324219 141.464844 319.671875 151.121094 319.671875 162.992188 C 319.671875 164.695312 318.304688 166.066406 316.597656 166.066406 " fill-opacity="1" fill-rule="nonzero"/><path fill="#000000" d="M 58.402344 141.464844 C 56.695312 141.464844 55.328125 140.09375 55.328125 138.386719 L 55.328125 64.578125 C 55.328125 62.875 56.695312 61.503906 58.402344 61.503906 C 60.105469 61.503906 61.476562 62.875 61.476562 64.578125 L 61.476562 138.386719 C 61.476562 140.09375 60.105469 141.464844 58.402344 141.464844 " fill-opacity="1" fill-rule="nonzero"/><path fill="#000000" d="M 199.796875 73.804688 C 184.546875 73.804688 172.132812 86.226562 172.132812 101.484375 C 172.132812 116.742188 184.546875 129.160156 199.796875 129.160156 C 215.042969 129.160156 227.460938 116.742188 227.460938 101.484375 C 227.460938 86.226562 215.042969 73.804688 199.796875 73.804688 Z M 199.796875 135.3125 C 181.160156 135.3125 165.984375 120.128906 165.984375 101.484375 C 165.984375 82.839844 181.160156 67.65625 199.796875 67.65625 C 218.429688 67.65625 233.605469 82.839844 233.605469 101.484375 C 233.605469 120.128906 218.429688 135.3125 199.796875 135.3125 " fill-opacity="1" fill-rule="nonzero"/><path fill="#000000" d="M 298.15625 104.558594 L 273.566406 104.558594 C 271.859375 104.558594 270.492188 103.191406 270.492188 101.484375 C 270.492188 99.777344 271.859375 98.410156 273.566406 98.410156 L 298.15625 98.410156 C 299.859375 98.410156 301.230469 99.777344 301.230469 101.484375 C 301.230469 103.191406 299.859375 104.558594 298.15625 104.558594 " fill-opacity="1" fill-rule="nonzero"/><path fill="#000000" d="M 126.023438 104.558594 L 101.433594 104.558594 C 99.730469 104.558594 98.359375 103.191406 98.359375 101.484375 C 98.359375 99.777344 99.730469 98.410156 101.433594 98.410156 L 126.023438 98.410156 C 127.730469 98.410156 129.097656 99.777344 129.097656 101.484375 C 129.097656 103.191406 127.730469 104.558594 126.023438 104.558594 " fill-opacity="1" fill-rule="nonzero"/><path fill="#000000" d="M 181.351562 246.027344 C 146.941406 246.027344 122.949219 257.367188 122.949219 267.554688 C 122.949219 277.738281 146.941406 289.082031 181.351562 289.082031 C 215.765625 289.082031 239.753906 277.738281 239.753906 267.554688 C 239.753906 257.367188 215.765625 246.027344 181.351562 246.027344 Z M 181.351562 295.230469 C 145.164062 295.230469 116.804688 283.074219 116.804688 267.554688 C 116.804688 252.03125 145.164062 239.875 181.351562 239.875 C 217.542969 239.875 245.902344 252.03125 245.902344 267.554688 C 245.902344 283.074219 217.542969 295.230469 181.351562 295.230469 " fill-opacity="1" fill-rule="nonzero"/><path fill="#000000" d="M 181.351562 332.136719 C 145.164062 332.136719 116.804688 319.976562 116.804688 304.457031 C 116.804688 302.75 118.171875 301.382812 119.878906 301.382812 C 121.582031 301.382812 122.949219 302.75 122.949219 304.457031 C 122.949219 314.644531 146.941406 325.984375 181.351562 325.984375 C 215.765625 325.984375 239.753906 314.644531 239.753906 304.457031 C 239.753906 302.75 241.121094 301.382812 242.828125 301.382812 C 244.53125 301.382812 245.902344 302.75 245.902344 304.457031 C 245.902344 319.976562 217.542969 332.136719 181.351562 332.136719 " fill-opacity="1" fill-rule="nonzero"/><g clip-path="url(#bf05b7c154)"><path fill="#000000" d="M 181.351562 369.039062 C 145.164062 369.039062 116.804688 356.882812 116.804688 341.363281 L 116.804688 267.554688 C 116.804688 265.847656 118.171875 264.476562 119.878906 264.476562 C 121.582031 264.476562 122.949219 265.847656 122.949219 267.554688 L 122.949219 341.363281 C 122.949219 351.546875 146.941406 362.890625 181.351562 362.890625 C 215.765625 362.890625 239.753906 351.546875 239.753906 341.363281 L 239.753906 267.554688 C 239.753906 265.847656 241.121094 264.476562 242.828125 264.476562 C 244.53125 264.476562 245.902344 265.847656 245.902344 267.554688 L 245.902344 341.363281 C 245.902344 356.882812 217.542969 369.039062 181.351562 369.039062 " fill-opacity="1" fill-rule="nonzero"/></g><path fill="#000000" d="M 64.550781 190.667969 C 30.136719 190.667969 6.148438 202.007812 6.148438 212.195312 C 6.148438 222.382812 30.136719 233.722656 64.550781 233.722656 C 98.960938 233.722656 122.949219 222.382812 122.949219 212.195312 C 122.949219 202.007812 98.960938 190.667969 64.550781 190.667969 Z M 64.550781 239.875 C 28.359375 239.875 0 227.71875 0 212.195312 C 0 196.675781 28.359375 184.519531 64.550781 184.519531 C 100.738281 184.519531 129.097656 196.675781 129.097656 212.195312 C 129.097656 227.71875 100.738281 239.875 64.550781 239.875 " fill-opacity="1" fill-rule="nonzero"/><path fill="#000000" d="M 64.550781 276.777344 C 28.359375 276.777344 0 264.621094 0 249.101562 C 0 247.394531 1.367188 246.027344 3.074219 246.027344 C 4.777344 246.027344 6.148438 247.394531 6.148438 249.101562 C 6.148438 259.289062 30.136719 270.628906 64.550781 270.628906 C 75.117188 270.628906 85.511719 269.523438 94.589844 267.410156 C 96.246094 267.023438 97.90625 268.058594 98.289062 269.714844 C 98.671875 271.375 97.640625 273.03125 95.984375 273.414062 C 86.449219 275.601562 75.59375 276.777344 64.550781 276.777344 " fill-opacity="1" fill-rule="nonzero"/><path fill="#000000" d="M 64.550781 313.683594 C 28.359375 313.683594 0 301.527344 0 286.003906 C 0 284.300781 1.367188 282.929688 3.074219 282.929688 C 4.777344 282.929688 6.148438 284.300781 6.148438 286.003906 C 6.148438 296.191406 30.136719 307.53125 64.550781 307.53125 C 75.117188 307.53125 85.511719 306.425781 94.589844 304.3125 C 96.246094 303.953125 97.90625 304.960938 98.289062 306.621094 C 98.671875 308.277344 97.640625 309.933594 95.984375 310.320312 C 86.449219 312.507812 75.59375 313.683594 64.550781 313.683594 " fill-opacity="1" fill-rule="nonzero"/><path fill="#000000" d="M 126.023438 233.722656 C 124.320312 233.722656 122.949219 232.355469 122.949219 230.648438 L 122.949219 212.195312 C 122.949219 210.492188 124.320312 209.121094 126.023438 209.121094 C 127.730469 209.121094 129.097656 210.492188 129.097656 212.195312 L 129.097656 230.648438 C 129.097656 232.355469 127.730469 233.722656 126.023438 233.722656 " fill-opacity="1" fill-rule="nonzero"/><path fill="#000000" d="M 64.550781 350.585938 C 28.359375 350.585938 0 338.429688 0 322.910156 L 0 212.195312 C 0 210.492188 1.367188 209.121094 3.074219 209.121094 C 4.777344 209.121094 6.148438 210.492188 6.148438 212.195312 L 6.148438 322.910156 C 6.148438 333.097656 30.136719 344.4375 64.550781 344.4375 C 75.117188 344.4375 85.511719 343.332031 94.589844 341.21875 C 96.246094 340.855469 97.90625 341.867188 98.289062 343.523438 C 98.671875 345.183594 97.640625 346.839844 95.984375 347.222656 C 86.449219 349.433594 75.59375 350.585938 64.550781 350.585938 " fill-opacity="1" fill-rule="nonzero"/></svg>