<svg xmlns="http://www.w3.org/2000/svg" xmlns:xlink="http://www.w3.org/1999/xlink" width="500" zoomAndPan="magnify" viewBox="0 0 375 374.999991" height="500" preserveAspectRatio="xMidYMid meet" version="1.0"><defs><clipPath id="4c1d7296c5"><path d="M 67 217 L 232 217 L 232 364.5 L 67 364.5 Z M 67 217 " clip-rule="nonzero"/></clipPath></defs><path fill="#000000" d="M 284.214844 157.597656 L 279.765625 157.597656 C 272.890625 145.0625 264.863281 132.125 254.523438 122.097656 C 243.328125 111.167969 229.398438 103.628906 211.210938 103.628906 C 189.558594 103.628906 172.179688 119.980469 162.070312 132.449219 C 159.789062 135.246094 157.894531 137.832031 156.390625 140.019531 C 157.277344 132.238281 158.363281 124.863281 159.722656 117.714844 C 159.707031 117.699219 159.707031 117.699219 159.722656 117.699219 C 174.625 102.0625 204.496094 82.769531 236.207031 98.8125 C 236.433594 98.921875 236.660156 99.054688 236.886719 99.167969 C 243.410156 102.589844 249.394531 106.78125 254.832031 111.75 C 257.5625 114.210938 260.132812 116.824219 262.550781 119.59375 C 278.570312 137.820312 284.214844 157.597656 284.214844 157.597656 Z M 284.214844 157.597656 " fill-opacity="1" fill-rule="nonzero"/><path fill="#000000" d="M 301.113281 215.527344 C 299.320312 215.542969 297.59375 215.21875 295.929688 214.550781 C 287.300781 211.058594 284.566406 199.328125 281.398438 185.746094 C 279.582031 177.933594 273.675781 174.558594 266.839844 170.648438 C 260.085938 166.785156 253.101562 162.789062 250.121094 154.085938 C 245.890625 141.707031 249.355469 128.136719 251.792969 121.148438 C 251.875 120.917969 251.980469 120.703125 252.117188 120.5 C 252.25 120.296875 252.40625 120.117188 252.589844 119.953125 C 252.769531 119.789062 252.964844 119.652344 253.183594 119.539062 C 253.398438 119.425781 253.621094 119.34375 253.859375 119.285156 C 254.09375 119.230469 254.335938 119.203125 254.578125 119.210938 C 254.820312 119.214844 255.058594 119.25 255.292969 119.3125 C 255.527344 119.378906 255.75 119.46875 255.960938 119.589844 C 256.171875 119.710938 256.363281 119.855469 256.539062 120.023438 C 264.515625 127.761719 271.101562 137.183594 276.4375 145.992188 C 272.191406 137.101562 266.839844 128.9375 260.378906 121.5 C 258.035156 118.816406 255.539062 116.28125 252.894531 113.898438 C 252.667969 113.691406 252.480469 113.457031 252.328125 113.195312 C 252.175781 112.929688 252.066406 112.652344 252.003906 112.351562 C 251.941406 112.054688 251.921875 111.753906 251.953125 111.453125 C 251.988281 111.148438 252.0625 110.859375 252.1875 110.582031 C 252.308594 110.300781 252.472656 110.050781 252.675781 109.824219 C 252.878906 109.597656 253.113281 109.40625 253.375 109.253906 C 253.640625 109.097656 253.917969 108.992188 254.21875 108.925781 C 254.515625 108.859375 254.816406 108.84375 255.117188 108.875 C 262.902344 109.648438 277.851562 112.511719 290.507812 122.960938 C 307.484375 136.96875 305.050781 147.65625 300.625 167.0625 C 300.355469 168.257812 300.074219 169.492188 299.789062 170.765625 C 296.074219 187.320312 299.175781 193.667969 303.867188 203.273438 C 304.984375 205.554688 306.25 208.144531 307.5 211.03125 C 307.585938 211.226562 307.644531 211.429688 307.6875 211.636719 C 307.726562 211.847656 307.742188 212.058594 307.738281 212.269531 C 307.730469 212.480469 307.699219 212.691406 307.648438 212.894531 C 307.59375 213.101562 307.519531 213.296875 307.425781 213.488281 C 307.328125 213.675781 307.214844 213.855469 307.078125 214.015625 C 306.945312 214.179688 306.792969 214.328125 306.625 214.460938 C 306.457031 214.589844 306.277344 214.699219 306.085938 214.792969 C 305.894531 214.882812 305.695312 214.953125 305.488281 215 C 304.050781 215.339844 302.59375 215.515625 301.113281 215.527344 Z M 255.851562 127.605469 C 254.0625 134.265625 252.683594 143.6875 255.597656 152.214844 C 257.871094 158.855469 263.621094 162.144531 269.714844 165.628906 C 276.714844 169.632812 284.644531 174.167969 287.035156 184.4375 C 289.71875 195.949219 292.253906 206.824219 298.101562 209.191406 C 298.894531 209.507812 299.714844 209.683594 300.566406 209.726562 C 299.925781 208.367188 299.292969 207.074219 298.675781 205.808594 C 293.632812 195.488281 289.988281 188.035156 294.144531 169.5 C 294.433594 168.214844 294.714844 166.976562 294.992188 165.777344 C 299.28125 146.953125 301.058594 139.15625 286.828125 127.417969 C 279.09375 121.03125 270.363281 117.765625 263.308594 116.097656 C 263.789062 116.625 264.261719 117.15625 264.730469 117.691406 C 280.988281 136.1875 286.761719 155.972656 287 156.804688 C 287.0625 157.019531 287.097656 157.238281 287.109375 157.460938 C 287.117188 157.6875 287.105469 157.90625 287.0625 158.128906 C 287.023438 158.347656 286.957031 158.558594 286.867188 158.765625 C 286.777344 158.96875 286.664062 159.160156 286.527344 159.339844 C 286.394531 159.519531 286.242188 159.679688 286.066406 159.824219 C 285.894531 159.964844 285.710938 160.085938 285.507812 160.1875 C 285.308594 160.285156 285.101562 160.363281 284.882812 160.414062 C 284.664062 160.464844 284.441406 160.492188 284.21875 160.492188 L 279.769531 160.492188 C 279.242188 160.492188 278.75 160.355469 278.296875 160.085938 C 277.839844 159.816406 277.488281 159.453125 277.234375 158.988281 C 271.949219 149.359375 264.878906 137.402344 255.851562 127.605469 Z M 255.851562 127.605469 " fill-opacity="1" fill-rule="nonzero"/><path fill="#000000" d="M 152.941406 192.832031 L 132.71875 192.832031 C 132.324219 192.832031 131.941406 192.753906 131.578125 192.601562 C 131.214844 192.445312 130.898438 192.222656 130.625 191.9375 C 130.351562 191.652344 130.148438 191.324219 130.007812 190.957031 C 129.871094 190.585938 129.808594 190.203125 129.828125 189.808594 C 130.359375 178.269531 133.65625 118.929688 146.386719 83.710938 C 147.597656 80.386719 148.808594 77.367188 150.089844 74.480469 C 151.597656 70.984375 153.34375 67.367188 155.257812 63.753906 C 164.261719 46.78125 176.042969 32.191406 189.328125 21.5625 C 204.613281 9.332031 221.328125 2.574219 239.007812 1.480469 C 259.15625 0.238281 281.511719 5.222656 301.964844 15.519531 C 320.042969 24.621094 334.960938 37.085938 341.871094 48.863281 C 342.179688 49.390625 342.308594 49.957031 342.261719 50.5625 C 342.210938 51.171875 341.988281 51.710938 341.597656 52.179688 C 341.207031 52.648438 340.71875 52.960938 340.128906 53.117188 C 339.539062 53.277344 338.957031 53.25 338.382812 53.042969 C 338.105469 52.9375 337.835938 52.847656 337.582031 52.765625 L 337.792969 55.34375 C 337.863281 56.195312 337.609375 56.929688 337.027344 57.554688 C 337.015625 57.566406 335.949219 58.714844 334.398438 60.714844 C 334.128906 61.066406 333.796875 61.339844 333.398438 61.535156 C 333.003906 61.730469 332.585938 61.832031 332.144531 61.835938 C 331.699219 61.84375 331.28125 61.753906 330.878906 61.566406 C 330.480469 61.375 330.140625 61.109375 329.867188 60.765625 C 318.578125 46.820312 300.6875 28.71875 279.53125 21.660156 C 263.40625 16.285156 241.730469 18.453125 221.554688 27.457031 C 200.449219 36.875 184.261719 52.242188 177.140625 69.617188 C 170.34375 86.183594 165.71875 101.601562 162.589844 118.125 C 162.582031 118.167969 162.574219 118.210938 162.566406 118.253906 C 161.257812 125.128906 160.179688 132.355469 159.265625 140.347656 C 157.777344 153.453125 156.71875 168.789062 155.835938 190.0625 C 155.820312 190.433594 155.734375 190.789062 155.582031 191.132812 C 155.429688 191.472656 155.214844 191.769531 154.945312 192.027344 C 154.675781 192.285156 154.371094 192.484375 154.023438 192.625 C 153.675781 192.761719 153.316406 192.832031 152.941406 192.832031 Z M 135.757812 187.050781 L 150.171875 187.050781 C 151.039062 167.058594 152.078125 152.367188 153.515625 139.691406 C 154.433594 131.65625 155.519531 124.371094 156.832031 117.433594 C 156.847656 117.257812 156.878906 117.082031 156.929688 116.910156 C 160.132812 100.046875 164.855469 84.316406 171.785156 67.421875 C 179.464844 48.6875 196.742188 32.195312 219.195312 22.175781 C 240.65625 12.597656 263.894531 10.355469 281.359375 16.179688 C 302.328125 23.171875 320.046875 40.09375 331.886719 54.136719 L 331.589844 50.550781 L 331.589844 50.546875 L 331.492188 49.347656 C 331.46875 49.050781 331.492188 48.753906 331.558594 48.460938 C 331.625 48.171875 331.738281 47.894531 331.890625 47.636719 C 332.042969 47.378906 332.230469 47.152344 332.457031 46.953125 C 332.679688 46.753906 332.929688 46.59375 333.203125 46.472656 C 325.890625 37.246094 313.714844 27.910156 299.363281 20.683594 C 279.808594 10.839844 258.5 6.070312 239.363281 7.25 C 208.09375 9.1875 179.300781 30.769531 160.367188 66.460938 C 158.523438 69.941406 156.847656 73.417969 155.390625 76.796875 C 154.148438 79.589844 152.988281 82.488281 151.828125 85.679688 C 140.242188 117.726562 136.625 170.683594 135.757812 187.050781 Z M 135.757812 187.050781 " fill-opacity="1" fill-rule="nonzero"/><path fill="#000000" d="M 157.8125 65.109375 C 155.96875 68.585938 154.277344 72.097656 152.734375 75.652344 C 152.394531 75.132812 152.019531 74.585938 151.617188 74.003906 C 143.507812 62.199219 123.316406 37.371094 96.632812 37.371094 C 78.445312 37.371094 64.515625 44.925781 53.300781 55.839844 C 42.960938 65.898438 34.96875 78.820312 28.078125 91.339844 L 23.628906 91.339844 C 23.628906 91.339844 29.710938 70.039062 47.136719 51.28125 C 47.332031 51.085938 47.511719 50.875 47.71875 50.683594 C 49.371094 48.917969 51.136719 47.171875 53.011719 45.492188 C 58.453125 40.53125 64.433594 36.34375 70.957031 32.925781 C 106.957031 14.117188 140.726562 41.203125 153.074219 57.183594 C 155.007812 59.613281 156.589844 62.253906 157.8125 65.109375 Z M 157.8125 65.109375 " fill-opacity="1" fill-rule="nonzero"/><path fill="#000000" d="M 6.679688 149.257812 C 5.214844 149.25 3.769531 149.074219 2.34375 148.738281 C 2.140625 148.6875 1.941406 148.621094 1.75 148.527344 C 1.558594 148.4375 1.378906 148.324219 1.210938 148.195312 C 1.046875 148.0625 0.894531 147.917969 0.761719 147.753906 C 0.625 147.589844 0.511719 147.414062 0.417969 147.222656 C 0.320312 147.035156 0.246094 146.835938 0.195312 146.632812 C 0.140625 146.425781 0.113281 146.21875 0.105469 146.007812 C 0.101562 145.792969 0.117188 145.585938 0.15625 145.375 C 0.195312 145.167969 0.257812 144.96875 0.34375 144.773438 C 1.59375 141.882812 2.859375 139.296875 3.972656 137.011719 C 8.667969 127.40625 11.769531 121.0625 8.054688 104.503906 C 7.769531 103.238281 7.492188 102.007812 7.21875 100.820312 C 2.792969 81.40625 0.351562 70.710938 17.335938 56.699219 C 29.992188 46.253906 44.9375 43.390625 52.722656 42.613281 C 53.027344 42.585938 53.328125 42.601562 53.625 42.667969 C 53.921875 42.730469 54.203125 42.839844 54.46875 42.992188 C 54.730469 43.148438 54.964844 43.335938 55.167969 43.566406 C 55.371094 43.792969 55.535156 44.046875 55.65625 44.324219 C 55.78125 44.601562 55.855469 44.894531 55.886719 45.195312 C 55.917969 45.5 55.902344 45.800781 55.839844 46.097656 C 55.773438 46.394531 55.667969 46.675781 55.515625 46.941406 C 55.359375 47.203125 55.171875 47.4375 54.945312 47.640625 C 53.074219 49.324219 51.210938 51.160156 49.25 53.253906 C 40.707031 62.453125 34.949219 72.328125 31.355469 79.824219 C 36.804688 70.808594 43.289062 61.550781 51.285156 53.769531 C 51.460938 53.601562 51.652344 53.457031 51.863281 53.335938 C 52.074219 53.214844 52.296875 53.121094 52.53125 53.058594 C 52.765625 52.992188 53.003906 52.957031 53.246094 52.953125 C 53.488281 52.949219 53.730469 52.972656 53.964844 53.027344 C 54.203125 53.085938 54.429688 53.167969 54.644531 53.28125 C 54.859375 53.394531 55.058594 53.53125 55.238281 53.695312 C 55.417969 53.855469 55.578125 54.039062 55.710938 54.242188 C 55.847656 54.441406 55.953125 54.660156 56.035156 54.886719 C 58.480469 61.875 61.953125 75.445312 57.707031 87.828125 C 54.738281 96.53125 47.753906 100.527344 41 104.390625 C 34.164062 108.300781 28.261719 111.679688 26.445312 119.488281 C 23.136719 133.726562 20.011719 147.175781 9.253906 149.042969 C 8.402344 149.191406 7.542969 149.261719 6.679688 149.257812 Z M 44.53125 49.839844 C 37.476562 51.511719 28.75 54.777344 21.019531 61.15625 C 6.785156 72.902344 8.5625 80.699219 12.859375 99.535156 C 13.132812 100.730469 13.410156 101.964844 13.699219 103.238281 C 17.855469 121.773438 14.214844 129.230469 9.171875 139.546875 C 8.550781 140.8125 7.921875 142.101562 7.285156 143.457031 C 7.613281 143.441406 7.941406 143.402344 8.265625 143.347656 C 14.773438 142.214844 17.347656 133.085938 20.808594 118.175781 C 23.199219 107.910156 31.128906 103.375 38.125 99.371094 C 44.214844 95.886719 49.964844 92.597656 52.230469 85.957031 L 52.230469 85.953125 C 55.15625 77.425781 53.773438 68.007812 51.976562 61.347656 C 43.113281 70.96875 36.242188 82.5 30.605469 92.730469 C 30.351562 93.195312 30 93.558594 29.546875 93.828125 C 29.089844 94.09375 28.601562 94.230469 28.074219 94.230469 L 23.628906 94.230469 C 23.402344 94.230469 23.183594 94.203125 22.964844 94.152344 C 22.746094 94.101562 22.539062 94.023438 22.335938 93.925781 C 22.136719 93.824219 21.949219 93.703125 21.777344 93.5625 C 21.605469 93.417969 21.453125 93.257812 21.316406 93.078125 C 21.183594 92.898438 21.070312 92.707031 20.980469 92.503906 C 20.890625 92.296875 20.824219 92.085938 20.785156 91.867188 C 20.742188 91.644531 20.726562 91.425781 20.738281 91.199219 C 20.75 90.976562 20.785156 90.757812 20.847656 90.542969 C 21.101562 89.65625 27.207031 68.753906 44.53125 49.839844 Z M 44.53125 49.839844 " fill-opacity="1" fill-rule="nonzero"/><path fill="#000000" d="M 343.550781 168.171875 C 343.296875 168.171875 343.046875 168.136719 342.800781 168.070312 C 342.414062 167.96875 338.949219 166.941406 335.667969 162.785156 C 331.207031 157.140625 329.257812 148.675781 329.871094 137.625 C 330.585938 124.742188 327.429688 119.5 323.78125 113.429688 C 320.972656 108.765625 317.792969 103.476562 316.667969 94.480469 C 314.761719 79.203125 324.09375 64.546875 329.828125 57.171875 C 330.683594 56.070312 331.40625 55.195312 331.929688 54.59375 L 331.496094 49.347656 C 331.476562 49.140625 331.484375 48.9375 331.511719 48.730469 C 331.539062 48.527344 331.585938 48.328125 331.65625 48.132812 C 331.726562 47.9375 331.816406 47.753906 331.925781 47.578125 C 332.035156 47.402344 332.164062 47.242188 332.308594 47.09375 C 332.453125 46.945312 332.609375 46.816406 332.78125 46.703125 C 332.953125 46.585938 333.136719 46.492188 333.332031 46.417969 C 333.523438 46.34375 333.722656 46.289062 333.925781 46.257812 C 334.128906 46.226562 334.335938 46.214844 334.542969 46.226562 C 336.546875 46.421875 338.492188 46.882812 340.371094 47.609375 C 346.710938 49.929688 358.398438 56.753906 365.417969 76.445312 C 375.015625 103.351562 358.738281 120.785156 349.992188 130.152344 C 349.324219 130.871094 348.695312 131.542969 348.117188 132.179688 C 342.3125 138.558594 344.894531 157.796875 346.378906 164.667969 C 346.421875 164.878906 346.445312 165.09375 346.441406 165.308594 C 346.441406 165.523438 346.414062 165.738281 346.363281 165.949219 C 346.316406 166.15625 346.242188 166.359375 346.148438 166.554688 C 346.050781 166.746094 345.9375 166.925781 345.800781 167.09375 C 345.667969 167.261719 345.515625 167.414062 345.34375 167.546875 C 345.175781 167.679688 344.992188 167.796875 344.796875 167.886719 C 344.601562 167.980469 344.402344 168.050781 344.191406 168.097656 C 343.980469 168.148438 343.765625 168.171875 343.550781 168.171875 Z M 337.578125 52.765625 L 337.792969 55.34375 C 337.863281 56.195312 337.605469 56.929688 337.023438 57.554688 C 337.015625 57.566406 335.949219 58.714844 334.398438 60.714844 C 330.222656 66.089844 320.695312 80.058594 322.410156 93.761719 C 323.382812 101.546875 325.984375 105.871094 328.734375 110.449219 C 332.53125 116.761719 336.457031 123.289062 335.644531 137.945312 C 335.046875 148.710938 337.238281 154.808594 339.464844 158.179688 C 339.207031 156.105469 338.972656 153.738281 338.839844 151.246094 C 338.261719 140.296875 339.941406 132.574219 343.835938 128.292969 C 344.429688 127.640625 345.078125 126.945312 345.761719 126.210938 C 354.222656 117.148438 368.382812 101.980469 359.96875 78.386719 C 353.742188 60.921875 343.769531 55.011719 338.382812 53.042969 C 338.105469 52.9375 337.835938 52.847656 337.578125 52.765625 Z M 337.578125 52.765625 " fill-opacity="1" fill-rule="nonzero"/><path fill="#000000" d="M 231.824219 223.558594 L 68.011719 223.558594 C 67.304688 223.558594 66.601562 223.492188 65.910156 223.351562 C 65.214844 223.214844 64.539062 223.011719 63.886719 222.738281 C 63.234375 222.46875 62.613281 222.136719 62.023438 221.746094 C 61.433594 221.351562 60.890625 220.90625 60.390625 220.40625 C 59.886719 219.90625 59.441406 219.363281 59.046875 218.773438 C 58.652344 218.1875 58.320312 217.566406 58.050781 216.914062 C 57.777344 216.261719 57.574219 215.585938 57.433594 214.894531 C 57.292969 214.199219 57.222656 213.5 57.222656 212.792969 L 57.222656 197.816406 C 57.222656 197.109375 57.292969 196.410156 57.433594 195.714844 C 57.574219 195.023438 57.777344 194.347656 58.050781 193.695312 C 58.320312 193.042969 58.652344 192.421875 59.046875 191.835938 C 59.441406 191.246094 59.886719 190.703125 60.390625 190.203125 C 60.890625 189.703125 61.433594 189.257812 62.023438 188.867188 C 62.613281 188.472656 63.234375 188.140625 63.886719 187.871094 C 64.539062 187.601562 65.214844 187.394531 65.910156 187.257812 C 66.601562 187.121094 67.304688 187.050781 68.011719 187.050781 L 231.824219 187.050781 C 232.53125 187.050781 233.230469 187.121094 233.925781 187.257812 C 234.621094 187.394531 235.292969 187.601562 235.949219 187.871094 C 236.601562 188.140625 237.222656 188.472656 237.8125 188.867188 C 238.398438 189.257812 238.945312 189.703125 239.445312 190.203125 C 239.945312 190.703125 240.394531 191.246094 240.789062 191.835938 C 241.179688 192.421875 241.515625 193.042969 241.785156 193.695312 C 242.058594 194.347656 242.261719 195.023438 242.402344 195.714844 C 242.539062 196.410156 242.609375 197.109375 242.613281 197.816406 L 242.613281 212.792969 C 242.609375 213.5 242.539062 214.199219 242.402344 214.894531 C 242.261719 215.585938 242.058594 216.261719 241.785156 216.914062 C 241.515625 217.566406 241.179688 218.1875 240.789062 218.773438 C 240.394531 219.363281 239.945312 219.90625 239.445312 220.40625 C 238.945312 220.90625 238.398438 221.351562 237.8125 221.746094 C 237.222656 222.136719 236.601562 222.46875 235.949219 222.738281 C 235.292969 223.011719 234.621094 223.214844 233.925781 223.351562 C 233.230469 223.492188 232.53125 223.558594 231.824219 223.558594 Z M 68.011719 192.832031 C 67.683594 192.832031 67.359375 192.863281 67.035156 192.929688 C 66.714844 192.992188 66.402344 193.085938 66.097656 193.210938 C 65.796875 193.335938 65.507812 193.488281 65.234375 193.671875 C 64.960938 193.855469 64.710938 194.058594 64.476562 194.292969 C 64.246094 194.523438 64.039062 194.773438 63.855469 195.046875 C 63.671875 195.320312 63.519531 195.605469 63.390625 195.910156 C 63.265625 196.210938 63.171875 196.523438 63.105469 196.84375 C 63.039062 197.167969 63.007812 197.492188 63.007812 197.820312 L 63.007812 212.792969 C 63.007812 213.121094 63.039062 213.445312 63.105469 213.769531 C 63.171875 214.089844 63.265625 214.402344 63.390625 214.703125 C 63.519531 215.007812 63.671875 215.292969 63.855469 215.566406 C 64.039062 215.839844 64.246094 216.089844 64.476562 216.320312 C 64.710938 216.554688 64.960938 216.757812 65.234375 216.941406 C 65.507812 217.121094 65.796875 217.277344 66.097656 217.402344 C 66.402344 217.527344 66.714844 217.621094 67.035156 217.683594 C 67.359375 217.75 67.683594 217.78125 68.011719 217.78125 L 231.824219 217.78125 C 232.152344 217.78125 232.476562 217.75 232.796875 217.683594 C 233.121094 217.621094 233.433594 217.527344 233.734375 217.402344 C 234.039062 217.277344 234.328125 217.121094 234.601562 216.941406 C 234.871094 216.757812 235.125 216.554688 235.359375 216.320312 C 235.589844 216.089844 235.796875 215.839844 235.980469 215.566406 C 236.164062 215.292969 236.316406 215.007812 236.441406 214.703125 C 236.570312 214.402344 236.664062 214.089844 236.730469 213.769531 C 236.792969 213.445312 236.828125 213.121094 236.828125 212.792969 L 236.828125 197.820312 C 236.828125 197.492188 236.792969 197.167969 236.730469 196.84375 C 236.664062 196.523438 236.570312 196.210938 236.441406 195.910156 C 236.316406 195.605469 236.164062 195.320312 235.980469 195.046875 C 235.796875 194.773438 235.589844 194.523438 235.359375 194.292969 C 235.125 194.058594 234.871094 193.855469 234.601562 193.671875 C 234.328125 193.488281 234.039062 193.335938 233.734375 193.210938 C 233.433594 193.085938 233.121094 192.992188 232.796875 192.929688 C 232.476562 192.863281 232.152344 192.832031 231.824219 192.832031 Z M 68.011719 192.832031 " fill-opacity="1" fill-rule="nonzero"/><g clip-path="url(#4c1d7296c5)"><path fill="#000000" d="M 210.191406 364.257812 L 95.710938 364.257812 C 95.246094 364.257812 94.800781 364.152344 94.386719 363.9375 C 93.96875 363.722656 93.625 363.425781 93.355469 363.042969 C 88.117188 355.683594 82.65625 332.941406 76.664062 293.507812 C 72.0625 263.257812 68.640625 232.707031 67.382812 220.976562 C 67.339844 220.570312 67.382812 220.171875 67.507812 219.78125 C 67.632812 219.390625 67.835938 219.042969 68.109375 218.738281 C 68.382812 218.433594 68.707031 218.195312 69.082031 218.027344 C 69.457031 217.863281 69.851562 217.777344 70.261719 217.777344 L 228.132812 217.777344 C 228.515625 217.777344 228.882812 217.851562 229.238281 217.996094 C 229.589844 218.144531 229.902344 218.351562 230.175781 218.621094 C 230.445312 218.890625 230.65625 219.203125 230.804688 219.554688 C 230.949219 219.910156 231.023438 220.277344 231.027344 220.660156 C 231.042969 225.046875 230.761719 230.753906 230.191406 237.613281 C 226.710938 280.210938 213.179688 361.035156 213.042969 361.847656 C 212.984375 362.183594 212.871094 362.5 212.703125 362.796875 C 212.535156 363.09375 212.320312 363.355469 212.058594 363.574219 C 211.796875 363.796875 211.507812 363.964844 211.183594 364.082031 C 210.863281 364.199219 210.53125 364.257812 210.191406 364.257812 Z M 97.304688 358.476562 L 207.738281 358.476562 C 210.015625 344.695312 221.304688 275.355469 224.425781 237.140625 C 224.863281 231.867188 225.128906 227.316406 225.214844 223.558594 L 73.480469 223.558594 C 79.40625 277.960938 88.957031 343.679688 97.304688 358.476562 Z M 97.304688 358.476562 " fill-opacity="1" fill-rule="nonzero"/></g></svg>