<svg xmlns="http://www.w3.org/2000/svg" xmlns:xlink="http://www.w3.org/1999/xlink" width="500" zoomAndPan="magnify" viewBox="0 0 375 374.999991" height="500" preserveAspectRatio="xMidYMid meet" version="1.0"><defs><clipPath id="e290bb0312"><path d="M 0 30.703125 L 277 30.703125 L 277 308 L 0 308 Z M 0 30.703125 " clip-rule="nonzero"/></clipPath><clipPath id="27f4355c00"><path d="M 159 295 L 271 295 L 271 344.203125 L 159 344.203125 Z M 159 295 " clip-rule="nonzero"/></clipPath><clipPath id="2832f28428"><path d="M 282 295 L 375 295 L 375 344.203125 L 282 344.203125 Z M 282 295 " clip-rule="nonzero"/></clipPath></defs><g clip-path="url(#e290bb0312)"><path fill="#000000" d="M 138.320312 307.292969 C 62.050781 307.292969 0 245.265625 0 169.015625 C 0 92.769531 62.050781 30.738281 138.320312 30.738281 C 214.585938 30.738281 276.640625 92.769531 276.640625 169.015625 C 276.640625 195.921875 268.90625 222 254.269531 244.441406 C 253.34375 245.867188 251.449219 246.265625 250.011719 245.339844 C 248.597656 244.410156 248.195312 242.507812 249.121094 241.085938 C 263.101562 219.644531 270.492188 194.722656 270.492188 169.015625 C 270.492188 96.160156 211.203125 36.882812 138.320312 36.882812 C 65.4375 36.882812 6.148438 96.160156 6.148438 169.015625 C 6.148438 241.875 65.4375 301.148438 138.320312 301.148438 C 140.019531 301.148438 141.394531 302.523438 141.394531 304.222656 C 141.394531 305.921875 140.019531 307.292969 138.320312 307.292969 Z M 138.320312 307.292969 " fill-opacity="1" fill-rule="nonzero"/></g><path fill="#000000" d="M 138.320312 79.902344 C 136.621094 79.902344 135.246094 78.527344 135.246094 76.832031 L 135.246094 64.539062 C 135.246094 62.839844 136.621094 61.464844 138.320312 61.464844 C 140.019531 61.464844 141.394531 62.839844 141.394531 64.539062 L 141.394531 76.832031 C 141.394531 78.527344 140.019531 79.902344 138.320312 79.902344 Z M 138.320312 79.902344 " fill-opacity="1" fill-rule="nonzero"/><path fill="#000000" d="M 138.320312 276.566406 C 136.621094 276.566406 135.246094 275.191406 135.246094 273.492188 L 135.246094 261.203125 C 135.246094 259.503906 136.621094 258.128906 138.320312 258.128906 C 140.019531 258.128906 141.394531 259.503906 141.394531 261.203125 L 141.394531 273.492188 C 141.394531 275.191406 140.019531 276.566406 138.320312 276.566406 Z M 138.320312 276.566406 " fill-opacity="1" fill-rule="nonzero"/><path fill="#000000" d="M 242.828125 172.089844 L 230.53125 172.089844 C 228.832031 172.089844 227.460938 170.714844 227.460938 169.015625 C 227.460938 167.316406 228.832031 165.941406 230.53125 165.941406 L 242.828125 165.941406 C 244.527344 165.941406 245.902344 167.316406 245.902344 169.015625 C 245.902344 170.714844 244.527344 172.089844 242.828125 172.089844 Z M 242.828125 172.089844 " fill-opacity="1" fill-rule="nonzero"/><path fill="#000000" d="M 46.105469 172.089844 L 33.8125 172.089844 C 32.113281 172.089844 30.738281 170.714844 30.738281 169.015625 C 30.738281 167.316406 32.113281 165.941406 33.8125 165.941406 L 46.105469 165.941406 C 47.804688 165.941406 49.179688 167.316406 49.179688 169.015625 C 49.179688 170.714844 47.804688 172.089844 46.105469 172.089844 Z M 46.105469 172.089844 " fill-opacity="1" fill-rule="nonzero"/><path fill="#000000" d="M 181.351562 172.089844 L 138.320312 172.089844 C 136.621094 172.089844 135.246094 170.714844 135.246094 169.015625 L 135.246094 119.851562 C 135.246094 118.152344 136.621094 116.777344 138.320312 116.777344 C 140.019531 116.777344 141.394531 118.152344 141.394531 119.851562 L 141.394531 165.941406 L 181.351562 165.941406 C 183.050781 165.941406 184.425781 167.316406 184.425781 169.015625 C 184.425781 170.714844 183.050781 172.089844 181.351562 172.089844 Z M 181.351562 172.089844 " fill-opacity="1" fill-rule="nonzero"/><g clip-path="url(#27f4355c00)"><path fill="#000000" d="M 208.632812 344.167969 C 179.875 344.167969 159.835938 319.878906 159.835938 298.074219 C 159.835938 296.378906 161.210938 295.003906 162.910156 295.003906 C 164.609375 295.003906 165.984375 296.378906 165.984375 298.074219 C 165.984375 316.96875 183.5 338.023438 208.632812 338.023438 C 232.929688 338.023438 264.648438 296.636719 264.96875 296.21875 C 266 294.863281 267.921875 294.609375 269.277344 295.628906 C 270.628906 296.652344 270.894531 298.582031 269.867188 299.933594 C 268.492188 301.738281 235.972656 344.167969 208.632812 344.167969 Z M 208.632812 344.167969 " fill-opacity="1" fill-rule="nonzero"/></g><path fill="#000000" d="M 371.925781 301.148438 C 370.226562 301.148438 368.851562 299.773438 368.851562 298.074219 C 368.851562 279.183594 351.335938 258.128906 326.203125 258.128906 C 301.90625 258.128906 270.183594 299.515625 269.867188 299.933594 C 268.835938 301.285156 266.914062 301.542969 265.558594 300.523438 C 264.207031 299.496094 263.941406 297.570312 264.96875 296.21875 C 266.34375 294.410156 298.863281 251.984375 326.203125 251.984375 C 354.960938 251.984375 375 276.273438 375 298.074219 C 375 299.773438 373.625 301.148438 371.925781 301.148438 Z M 371.925781 301.148438 " fill-opacity="1" fill-rule="nonzero"/><g clip-path="url(#2832f28428)"><path fill="#000000" d="M 326.203125 344.167969 C 314.226562 344.167969 299.898438 336.238281 283.617188 320.597656 C 282.390625 319.421875 282.355469 317.476562 283.53125 316.25 C 284.707031 315.023438 286.648438 314.996094 287.878906 316.167969 C 302.761719 330.464844 316.015625 338.023438 326.203125 338.023438 C 351.335938 338.023438 368.851562 316.96875 368.851562 298.074219 C 368.851562 296.378906 370.226562 295.003906 371.925781 295.003906 C 373.625 295.003906 375 296.378906 375 298.074219 C 375 319.878906 354.960938 344.167969 326.203125 344.167969 Z M 326.203125 344.167969 " fill-opacity="1" fill-rule="nonzero"/></g><path fill="#000000" d="M 162.910156 301.148438 C 161.210938 301.148438 159.835938 299.773438 159.835938 298.074219 C 159.835938 276.273438 179.875 251.984375 208.632812 251.984375 C 220.855469 251.984375 235.496094 260.21875 252.144531 276.453125 C 253.363281 277.640625 253.386719 279.585938 252.207031 280.800781 C 251.015625 282.019531 249.070312 282.039062 247.859375 280.855469 C 232.609375 265.988281 219.046875 258.128906 208.632812 258.128906 C 183.5 258.128906 165.984375 279.183594 165.984375 298.074219 C 165.984375 299.773438 164.609375 301.148438 162.910156 301.148438 Z M 162.910156 301.148438 " fill-opacity="1" fill-rule="nonzero"/><path fill="#000000" d="M 328.894531 276.566406 C 327.765625 276.566406 326.679688 275.941406 326.144531 274.863281 C 325.386719 273.34375 326.003906 271.496094 327.523438 270.742188 L 346.8125 261.144531 L 332.433594 238.25 C 331.535156 236.8125 331.96875 234.917969 333.40625 234.015625 C 334.84375 233.125 336.738281 233.550781 337.644531 234.988281 L 353.824219 260.75 C 354.289062 261.484375 354.414062 262.382812 354.179688 263.214844 C 353.945312 264.050781 353.367188 264.75 352.589844 265.136719 L 330.261719 276.246094 C 329.824219 276.464844 329.355469 276.566406 328.894531 276.566406 Z M 328.894531 276.566406 " fill-opacity="1" fill-rule="nonzero"/></svg>